<?xml version="1.0" encoding="UTF-8"?>
<svg version="1.1" xmlns="http://www.w3.org/2000/svg" width="512" height="512">
<path d="M0 0 C4.93548467 4.33293578 4.93548467 4.33293578 5.20703125 7.140625 C5.01173828 8.18476563 5.01173828 8.18476563 4.8125 9.25 C4.57284427 13.57106547 5.69642864 15.68100335 8.375 19.0625 C11.41041245 22.21904575 11.41041245 22.21904575 15.51171875 23.28125 C16.35347656 23.2090625 17.19523437 23.136875 18.0625 23.0625 C22.51937649 22.70351147 22.51937649 22.70351147 24.8046875 24.11328125 C39.38754354 39.8474154 48.02254727 62.10683689 55 82 C56.19496094 81.58427734 56.19496094 81.58427734 57.4140625 81.16015625 C58.47367187 80.79792969 59.53328125 80.43570313 60.625 80.0625 C62.19121094 79.52302734 62.19121094 79.52302734 63.7890625 78.97265625 C82.61208229 73.27079259 102.29295209 77.09032478 119.25537109 86.09375 C122.36103716 87.83028778 123.99127264 88.98690896 126 92 C125.9140625 93.98046875 125.9140625 93.98046875 125.625 96.1875 C125.5071395 99.46616489 125.73757629 100.66012084 127.7734375 103.296875 C129.22793763 104.69523653 130.71976101 106.05604462 132.25 107.37109375 C133.11625 108.17740234 133.11625 108.17740234 134 109 C134 109.66 134 110.32 134 111 C135.051875 110.7525 136.10375 110.505 137.1875 110.25 C141 110 141 110 143.5703125 111.59375 C146.36544497 114.36191978 147.37146447 116.55985385 148.6875 120.25 C149.28111328 121.86648438 149.28111328 121.86648438 149.88671875 123.515625 C155.87635129 142.26212405 154.4730096 161.45594644 146.25 179.25 C143.16159503 185.09229756 139.37364885 190.06562694 135 195 C134.48050781 195.61359375 133.96101563 196.2271875 133.42578125 196.859375 C122.73419829 208.6012646 106.10992884 216.32593486 90.3112793 217.20532227 C88.89904725 217.24672477 87.48667489 217.2835248 86.07421875 217.31640625 C85.32662796 217.33718735 84.57903717 217.35796844 83.80879211 217.37937927 C81.43511604 217.44444189 79.06133513 217.5035571 76.6875 217.5625 C75.07225505 217.60572646 73.45702047 217.64934204 71.84179688 217.69335938 C67.89463701 217.80007851 63.94737233 217.90146619 60 218 C60.85984497 219.61165039 60.85984497 219.61165039 61.73706055 221.25585938 C73.76882487 243.93530592 76.56425315 269.29396619 69.39794922 294.08251953 C64.90168543 308.41330785 57.45974227 320.21518347 47 331 C46.17435547 331.93585938 46.17435547 331.93585938 45.33203125 332.890625 C32.68805323 346.75217127 11.52299298 354.32610702 -6.96308517 355.37159729 C-12.50292361 355.56412791 -18.04115503 355.54180175 -23.58349609 355.51757812 C-25.69621256 355.52301161 -27.80892523 355.53014109 -29.92163086 355.53881836 C-35.60722813 355.55690208 -41.29253192 355.55004829 -46.97813368 355.53730202 C-52.9520335 355.52710426 -58.92590987 355.53658563 -64.89981079 355.54284668 C-74.92104563 355.55010008 -84.94216208 355.5405926 -94.96337891 355.52148438 C-106.529417 355.49968447 -118.09517333 355.50679905 -129.6612047 355.52879 C-139.62259556 355.5469673 -149.58390185 355.54949197 -159.54530394 355.53903532 C-165.48166944 355.53281782 -171.41790263 355.53191745 -177.35425949 355.54518127 C-182.9310038 355.55677435 -188.50738582 355.54865079 -194.08409119 355.52560425 C-196.12420171 355.52033717 -198.16434298 355.52179643 -200.20444107 355.53065491 C-216.27536247 355.59398144 -227.8466471 354.0173705 -239.75 342.2734375 C-248.18613945 333.03586481 -250.62140022 322.33230318 -250.3125 310.01171875 C-249.72368832 299.59711212 -244.35731514 289.78452906 -236.75 282.75 C-227.67623872 275.53906389 -217.54107717 272.65125365 -206.125 272.8046875 C-205.31506592 272.8075174 -204.50513184 272.81034729 -203.6706543 272.81326294 C-201.11361166 272.82435285 -198.55693465 272.84943548 -196 272.875 C-194.25391135 272.8850443 -192.50781715 272.8941676 -190.76171875 272.90234375 C-186.50767415 272.92425534 -182.25389881 272.95870618 -178 273 C-178.33 272.01 -178.66 271.02 -179 270 C-178.80408628 267.5553375 -178.52154602 265.11714405 -178.1875 262.6875 C-178.01605469 261.39199219 -177.84460938 260.09648437 -177.66796875 258.76171875 C-177.05856909 255.32983645 -176.13805393 252.28368428 -175 249 C-175.82827805 249.00444122 -176.65655609 249.00888245 -177.50993347 249.01345825 C-185.3226357 249.0535627 -193.13530326 249.08399852 -200.94808483 249.10362434 C-204.96453944 249.11405342 -208.98090887 249.12819659 -212.99731445 249.15087891 C-216.87469124 249.17263859 -220.75198618 249.18457522 -224.62941933 249.18975449 C-226.10736695 249.19344463 -227.58531019 249.20065059 -229.06322289 249.21146011 C-231.13624057 249.22601675 -233.2089217 249.22797623 -235.28198242 249.22705078 C-237.05069954 249.23371262 -237.05069954 249.23371262 -238.85514832 249.24050903 C-242.1212669 248.99072586 -244.20747062 248.72330454 -247 247 C-247.66 245.02 -248.32 243.04 -249 241 C-253.62 241 -258.24 241 -263 241 C-263.66 242.65 -264.32 244.3 -265 246 C-268.58091145 248.83177812 -271.32699358 249.383241 -275.83203125 249.3984375 C-276.95279053 249.40464111 -278.0735498 249.41084473 -279.22827148 249.41723633 C-280.41106689 249.40329834 -281.5938623 249.38936035 -282.8125 249.375 C-284.02558838 249.36557373 -285.23867676 249.35614746 -286.48852539 249.34643555 C-303.91598999 249.0546409 -319.88841918 245.87040501 -334 235 C-334.81210937 234.37609375 -335.62421875 233.7521875 -336.4609375 233.109375 C-348.22987303 223.33210548 -356.36121428 209.09987312 -359 194 C-360.4987573 174.44216583 -358.62066253 157.04880657 -345.8984375 141.41796875 C-343.67057408 138.86473009 -341.37110726 136.42024938 -339 134 C-338.40832031 133.37222656 -337.81664062 132.74445313 -337.20703125 132.09765625 C-324.78357461 120.0032978 -307.41709808 115.55176068 -290.59960938 115.56445312 C-282.64091392 115.76387374 -275.52546611 117.44590241 -268 120 C-267.94054199 119.38817871 -267.88108398 118.77635742 -267.81982422 118.14599609 C-263.10201344 71.48050498 -243.45459496 30.14365015 -207 0 C-147.42860826 -47.1585059 -59.27920774 -49.0710058 0 0 Z " fill="#010101" transform="translate(359,146)"/>
<path d="M0 0 C4.14787974 3.24222914 6.80473749 3.9910026 12.0390625 3.3984375 C13.3590625 3.0684375 14.6790625 2.7384375 16.0390625 2.3984375 C19.0090625 5.6984375 21.9790625 8.9984375 25.0390625 12.3984375 C24.3790625 13.7184375 23.7190625 15.0384375 23.0390625 16.3984375 C23.16332327 22.56761947 25.40983891 25.93154642 28.9765625 30.6484375 C37.22218431 42.12949456 43.87477826 54.39535352 48.6640625 67.7109375 C48.91196533 68.39792725 49.15986816 69.08491699 49.4152832 69.79272461 C50.75126538 73.76130517 51.69665426 77.23174987 51.0390625 81.3984375 C49.02734375 83.70703125 49.02734375 83.70703125 46.3515625 85.8359375 C42.08586648 89.40581077 39.02288481 92.72378255 36.0390625 97.3984375 C32.63735833 96.09334318 29.44433056 94.60349069 26.2265625 92.8984375 C15.40408557 87.5189365 3.4816123 86.41358841 -8.2109375 89.9609375 C-22.31638626 95.38319334 -31.2554589 103.98505058 -37.734375 117.50390625 C-39.10021007 121.11999655 -39.51597132 124.82481534 -40.03759766 128.6418457 C-40.21215485 129.90607864 -40.38671204 131.17031158 -40.56655884 132.47285461 C-40.6967038 133.43829697 -40.82684875 134.40373932 -40.9609375 135.3984375 C-41.67788788 135.40208313 -42.39483826 135.40572876 -43.1335144 135.40948486 C-49.92950444 135.4475388 -56.72510612 135.50458666 -63.52075005 135.58234024 C-67.01352541 135.62165044 -70.5060549 135.65391842 -73.99902344 135.66943359 C-78.02579112 135.68764178 -82.05164311 135.73766367 -86.078125 135.7890625 C-87.93653519 135.79090546 -87.93653519 135.79090546 -89.83248901 135.79278564 C-101.40245794 135.98605112 -109.38159356 138.86282763 -117.76171875 146.9140625 C-124.05339017 154.0215279 -125.23757269 160.91993107 -126.9609375 170.3984375 C-136.2009375 170.3984375 -145.4409375 170.3984375 -154.9609375 170.3984375 C-155.54875 166.7478125 -155.54875 166.7478125 -156.1484375 163.0234375 C-158.20224254 151.58461124 -162.66199246 141.78842769 -172.24609375 134.7109375 C-174.76076115 133.11685357 -177.29831725 131.72974763 -179.9609375 130.3984375 C-180.77046875 129.98335937 -181.58 129.56828125 -182.4140625 129.140625 C-192.3259033 124.79279299 -204.94072469 124.60037732 -215.1484375 128.1484375 C-219.28401932 129.87674035 -223.09138416 132.14946633 -226.9609375 134.3984375 C-227.80398437 133.48320312 -228.64703125 132.56796875 -229.515625 131.625 C-230.62237384 130.42445889 -231.72914588 129.22393917 -232.8359375 128.0234375 C-233.39152344 127.42015625 -233.94710937 126.816875 -234.51953125 126.1953125 C-235.05449219 125.61523438 -235.58945313 125.03515625 -236.140625 124.4375 C-236.87901611 123.63626709 -236.87901611 123.63626709 -237.63232422 122.81884766 C-238.71909512 121.65698932 -239.83599622 120.52337878 -240.9609375 119.3984375 C-244.70042174 87.6371038 -229.79685598 50.60441683 -210.4609375 26.0234375 C-208.65777466 23.78872979 -206.82097465 21.5859508 -204.9609375 19.3984375 C-203.76404297 17.98884766 -203.76404297 17.98884766 -202.54296875 16.55078125 C-183.44705104 -5.24025737 -156.99170305 -20.66125276 -128.9609375 -27.6015625 C-127.8884375 -27.88773438 -126.8159375 -28.17390625 -125.7109375 -28.46875 C-82.81951124 -39.72774939 -34.05505439 -27.81388904 0 0 Z " fill="#FCC102" transform="translate(347.9609375,157.6015625)"/>
<path d="M0 0 C2.46499825 2.15920422 4.75633264 4.39335292 7.01953125 6.76171875 C7.96699219 7.68017578 7.96699219 7.68017578 8.93359375 8.6171875 C20.62815681 20.6981348 24.61297881 37.23140217 24.45703125 53.57421875 C24.44800781 54.7142334 24.43898438 55.85424805 24.4296875 57.02880859 C24.04228377 75.93895311 17.08701462 93.8931636 4.01953125 107.76171875 C3.36726563 108.45523438 2.715 109.14875 2.04296875 109.86328125 C-15.71885583 127.09291633 -38.70860293 129.06630083 -62.13183594 129.05224609 C-64.13883206 129.05824102 -66.1458259 129.06504876 -68.15281677 129.07260132 C-73.56778031 129.09016019 -78.98268053 129.09495211 -84.39766979 129.09623289 C-87.78536567 129.09765963 -91.17304569 129.10193886 -94.56073761 129.10722733 C-106.39125076 129.12568683 -118.22171902 129.13390216 -130.05224609 129.13232422 C-141.06382159 129.13112061 -152.0752018 129.15227653 -163.08672786 129.18381155 C-172.56137153 129.20997449 -182.03595133 129.22069166 -191.51063085 129.2194134 C-197.16085149 129.21890422 -202.81089795 129.22456459 -208.46108246 129.2457695 C-213.77017033 129.26515468 -219.07891766 129.26527432 -224.38801765 129.25073624 C-226.33222261 129.24864813 -228.27644893 129.25334909 -230.22061729 129.26545715 C-241.54673003 129.33141215 -249.62256843 129.04107474 -259.23046875 122.57421875 C-264.91605019 116.75941955 -267.28643929 111.93665114 -267.48046875 103.69921875 C-267.11021038 94.86998069 -265.43827916 89.66833161 -259.1875 83.40234375 C-252.17619199 78.19039798 -246.26938856 77.18829726 -237.62109375 77.2578125 C-236.55429382 77.24839127 -235.4874939 77.23897003 -234.3883667 77.22926331 C-231.00220227 77.20072961 -227.61674343 77.19753212 -224.23046875 77.19921875 C-220.83001581 77.19561199 -217.43007052 77.18612193 -214.02972412 77.15846252 C-211.91964162 77.14165983 -209.80939118 77.13880952 -207.69927979 77.151474 C-206.7443866 77.14459061 -205.78949341 77.13770721 -204.80566406 77.13061523 C-203.54946259 77.13205788 -203.54946259 77.13205788 -202.2678833 77.13352966 C-199.44204601 76.67420009 -198.0552368 75.70486138 -195.98046875 73.76171875 C-195.4949364 71.52937893 -195.4949364 71.52937893 -195.73046875 69.04296875 C-195.76446777 68.11564941 -195.7984668 67.18833008 -195.83349609 66.23291016 C-195.88199707 65.25241699 -195.93049805 64.27192383 -195.98046875 63.26171875 C-196.27536105 51.01280292 -194.45669281 42.00315748 -185.98046875 32.76171875 C-178.61149196 25.15452073 -169.62253922 19.72958192 -158.87548828 19.46850586 C-145.43394708 19.36026103 -137.14300853 22.13431886 -126.90234375 31.03125 C-124.02942448 33.02647312 -124.02942448 33.02647312 -120.39453125 33.01953125 C-116.16648979 31.46183176 -115.48194605 30.06775218 -113.62280273 26.13623047 C-113.28708252 25.3732666 -112.9513623 24.61030273 -112.60546875 23.82421875 C-108.99167122 16.34734255 -105.02641885 10.54480146 -98.98046875 4.76171875 C-98.39265625 4.14296875 -97.80484375 3.52421875 -97.19921875 2.88671875 C-72.5548039 -21.32533795 -26.51689499 -19.91373634 0 0 Z " fill="#E3EEFD" transform="translate(391.98046875,357.23828125)"/>
<path d="M0 0 C1.56393847 1.20070115 3.10765796 2.42842894 4.625 3.6875 C5.24890625 4.18765625 5.8728125 4.6878125 6.515625 5.203125 C11.20399413 9.38464341 14.03063179 14.49746576 16.96142578 19.97680664 C18.65342195 23.43582799 18.65342195 23.43582799 21.625 25.6875 C24.86856576 26.44163353 24.86856576 26.44163353 28.625 25.6875 C30.59004539 24.07483273 30.59004539 24.07483273 32.4375 22 C38.34273822 15.63094038 44.23202516 12.46056815 53 12.0625 C61.91531877 12.46153665 69.5427414 15.3540817 76.125 21.4375 C82.55953706 28.70316476 83.89040668 34.47000432 83.625 44 C83.57666016 44.78938965 83.52832031 45.5787793 83.47851562 46.39208984 C83.44435547 47.14570801 83.41019531 47.89932617 83.375 48.67578125 C83.32859375 49.35165283 83.2821875 50.02752441 83.234375 50.72387695 C83.86448069 53.89133947 84.99935835 54.78294738 87.625 56.6875 C91.13382811 57.31051476 94.6207242 57.25103613 98.17675781 57.23339844 C99.78697311 57.24890495 99.78697311 57.24890495 101.42971802 57.26472473 C104.9793387 57.29423178 108.52839113 57.29565363 112.078125 57.296875 C114.53864637 57.31185124 116.99915767 57.3285772 119.45965576 57.34698486 C125.93693495 57.39073264 132.41407851 57.4106741 138.89147949 57.42572021 C145.50065149 57.44526439 152.10967645 57.48723745 158.71875 57.52734375 C171.68745025 57.60272646 184.65612807 57.65373075 197.625 57.6875 C194.75498223 60.57934524 191.89758117 63.35152045 188.75 65.9375 C182.59166475 71.27085071 177.9993236 77.86355519 173.625 84.6875 C170.0614601 83.91957009 166.81450128 82.60967674 163.4375 81.25 C148.77550079 75.60700587 135.54452247 74.89301576 120.625 80.6875 C115.10092223 83.38424246 110.03522573 85.97491796 106.0925293 90.76293945 C100.04081304 95.93470693 90.8418391 94.5123137 83.328125 94.45703125 C81.52926122 94.4657499 79.73040894 94.47724149 77.93157959 94.49137878 C73.21107551 94.52171007 68.49125128 94.5173481 63.77069092 94.50476074 C58.02570791 94.49531554 52.28081395 94.52377465 46.53590012 94.54982281 C42.06885638 94.56981978 37.60216104 94.58309052 33.1350708 94.57563782 C32.31544357 94.57595505 31.49581635 94.57627228 30.65135193 94.57659912 C29.1211866 94.57711329 27.59101367 94.57390441 26.06086731 94.56626892 C22.96845799 94.57138602 20.58343093 94.70135636 17.625 95.6875 C17.295 97.6675 16.965 99.6475 16.625 101.6875 C11.345 101.6875 6.065 101.6875 0.625 101.6875 C-0.035 100.0375 -0.695 98.3875 -1.375 96.6875 C-4.98917081 94.27805279 -6.7266621 94.42284057 -11.02734375 94.37890625 C-12.37565453 94.35370176 -13.72396173 94.32830454 -15.07226562 94.30273438 C-17.17812741 94.27428664 -19.28392488 94.25025858 -21.38989258 94.23120117 C-38.44410154 94.04703919 -52.15206149 90.94153338 -64.8125 78.75 C-75.65553277 67.23036199 -79.81408357 54.15043961 -79.6484375 38.4140625 C-78.6723583 25.11149738 -72.16387848 13.50949919 -62.52734375 4.46484375 C-45.17304632 -9.86583743 -19.10710091 -12.69992935 0 0 Z " fill="#BFDAFE" transform="translate(94.375,285.3125)"/>
<path d="M0 0 C3.10848127 1.49756007 5.66810026 1.45185659 9.03515625 0.98046875 C10.02515625 0.32046875 11.01515625 -0.33953125 12.03515625 -1.01953125 C13.570631 0.38125273 15.08820773 1.80167778 16.59765625 3.23046875 C17.44457031 4.019375 18.29148437 4.80828125 19.1640625 5.62109375 C21.03515625 7.98046875 21.03515625 7.98046875 20.875 10.15234375 C20.28397838 11.43884663 19.6683065 12.71416824 19.03515625 13.98046875 C18.23041584 20.15014523 20.29741758 24.52730983 22.84375 30.11328125 C27.68196585 41.7567253 25.26721844 55.50451965 20.91015625 66.91796875 C15.17951098 79.99257877 6.63735384 88.86782509 -5.90234375 95.29296875 C-6.55847656 95.63094482 -7.21460938 95.9689209 -7.890625 96.31713867 C-16.23703692 100.38828253 -24.45775256 101.30331119 -33.66015625 101.38671875 C-34.65183807 101.3981189 -35.6435199 101.40951904 -36.66525269 101.42126465 C-38.74765836 101.44004039 -40.83012178 101.45318274 -42.91259766 101.4609375 C-46.08860927 101.48046116 -49.26208801 101.54265732 -52.4375 101.60546875 C-54.47003686 101.61852157 -56.50259203 101.62902536 -58.53515625 101.63671875 C-59.47698761 101.66141235 -60.41881897 101.68610596 -61.38919067 101.71154785 C-66.25014175 101.67881602 -69.1623889 101.30219747 -72.90673828 98.06298828 C-73.68164108 97.27095505 -73.68164108 97.27095505 -74.47219849 96.46292114 C-86.55655974 84.46108073 -108.55295795 81.69256632 -124.59643555 81.66162109 C-125.80748459 81.65157547 -127.01853363 81.64152985 -128.26628113 81.63117981 C-131.55065723 81.60578743 -134.83494059 81.5888119 -138.11938453 81.57575178 C-141.5653815 81.56000129 -145.01129371 81.53324987 -148.45722961 81.50772095 C-154.96628588 81.46114225 -161.47535847 81.42429777 -167.98449498 81.39104807 C-175.40183215 81.35267787 -182.81908375 81.30330734 -190.23634851 81.25306392 C-205.47911819 81.15005551 -220.72193609 81.06069518 -235.96484375 80.98046875 C-236.1258442 74.31779044 -234.2015452 71.03376798 -229.96484375 65.98046875 C-225.16384992 61.76664682 -220.69230659 60.85687268 -214.4296875 60.82275391 C-213.7708255 60.81767319 -213.1119635 60.81259247 -212.43313599 60.80735779 C-211.00411299 60.7966677 -209.5750734 60.78804219 -208.14602661 60.78123856 C-205.88494129 60.76944045 -203.62404618 60.74998709 -201.36303711 60.7281189 C-194.93512271 60.66652127 -188.50722988 60.61239876 -182.07910156 60.57910156 C-178.14622974 60.55818131 -174.21370828 60.52290453 -170.28103638 60.47834396 C-168.78195309 60.46416744 -167.28280786 60.45545779 -165.78366089 60.45228958 C-163.6887328 60.44739212 -161.59473889 60.42426833 -159.5 60.39697266 C-158.30769775 60.3888858 -157.11539551 60.38079895 -155.88696289 60.37246704 C-152.99232873 60.20519369 -152.99232873 60.20519369 -151.0637207 58.69247437 C-149.11026798 55.64907445 -149.89603045 52.02625412 -150.08984375 48.54296875 C-150.35156893 37.92243658 -148.16520136 30.0981381 -140.90234375 22.04296875 C-134.70813888 16.38381148 -127.29894314 12.81245852 -118.83984375 12.48046875 C-108.62003137 13.10282912 -101.51591188 16.8804249 -94.08984375 23.703125 C-90.60999844 26.93149493 -90.60999844 26.93149493 -86.27734375 28.66796875 C-81.51715621 27.25277786 -79.23615291 21.86910267 -76.83984375 17.79296875 C-69.12628073 5.62486402 -57.63840617 -4.25678418 -43.33984375 -7.58203125 C-27.32725778 -9.65773684 -14.00396197 -8.26005016 0 0 Z " fill="#9FC9FC" transform="translate(471.96484375,247.01953125)"/>
<path d="M0 0 C-0.33 1.19625 -0.66 2.3925 -1 3.625 C-4.67914135 20.33881355 -0.84908765 35.76516801 8 50 C17.08288478 62.27374169 29.97546573 70.91719608 45 74 C50.79498038 74.44654203 56.57382092 74.43846881 62.38330078 74.43237305 C64.12860299 74.44140204 65.87389888 74.45173203 67.6191864 74.46325684 C72.33127086 74.49071948 77.04323465 74.50009671 81.75538874 74.50611091 C86.6895029 74.51552263 91.6235279 74.54172822 96.55758667 74.56611633 C105.88934325 74.60970821 115.22108246 74.63830004 124.55290973 74.66143972 C135.18176966 74.68853065 145.81053957 74.73243972 156.43933511 74.77772844 C178.29284158 74.87046996 200.146375 74.94219867 222 75 C220.89789095 76.75129657 219.79322568 78.50098464 218.6875 80.25 C217.76517578 81.71179688 217.76517578 81.71179688 216.82421875 83.203125 C215.29524241 85.54733713 213.71179023 87.78784032 212 90 C208.4364601 89.23207009 205.18950128 87.92217674 201.8125 86.5625 C187.15050079 80.91950587 173.91952247 80.20551576 159 86 C153.47592223 88.69674246 148.41022573 91.28741796 144.4675293 96.07543945 C138.41581304 101.24720693 129.2168391 99.8248137 121.703125 99.76953125 C119.90426122 99.7782499 118.10540894 99.78974149 116.30657959 99.80387878 C111.58607551 99.83421007 106.86625128 99.8298481 102.14569092 99.81726074 C96.40070791 99.80781554 90.65581395 99.83627465 84.91090012 99.86232281 C80.44385638 99.88231978 75.97716104 99.89559052 71.5100708 99.88813782 C70.69044357 99.88845505 69.87081635 99.88877228 69.02635193 99.88909912 C67.4961866 99.88961329 65.96601367 99.88640441 64.43586731 99.87876892 C61.34345799 99.88388602 58.95843093 100.01385636 56 101 C55.67 102.98 55.34 104.96 55 107 C49.72 107 44.44 107 39 107 C38.34 105.35 37.68 103.7 37 102 C33.38582919 99.59055279 31.6483379 99.73534057 27.34765625 99.69140625 C25.99934547 99.66620176 24.65103827 99.64080454 23.30273438 99.61523438 C21.19687259 99.58678664 19.09107512 99.56275858 16.98510742 99.54370117 C-0.06910154 99.35953919 -13.77706149 96.25403338 -26.4375 84.0625 C-37.28053277 72.54286199 -41.43908357 59.46293961 -41.2734375 43.7265625 C-40.29649797 30.41227235 -33.78158195 18.8556083 -24.16796875 9.78125 C-18.08097521 4.7800445 -8.15233454 -2.60371918 0 0 Z " fill="#9FC9FC" transform="translate(56,280)"/>
<path d="M0 0 C1.1055189 0.93590504 2.20935453 1.87379858 3.3125 2.8125 C3.92738281 3.33457031 4.54226563 3.85664063 5.17578125 4.39453125 C8.61691159 7.4230207 8.61691159 7.4230207 10 9 C9.7181953 11.32488881 9.04553582 12.90892835 8 15 C7.19525959 21.16967648 9.26226133 25.54684108 11.80859375 31.1328125 C16.6468096 42.77625655 14.23206219 56.5240509 9.875 67.9375 C4.14435473 81.01211002 -4.39780241 89.88735634 -16.9375 96.3125 C-17.59363281 96.65047607 -18.24976563 96.98845215 -18.92578125 97.33666992 C-27.27219317 101.40781378 -35.49290881 102.32284244 -44.6953125 102.40625 C-45.68699432 102.41765015 -46.67867615 102.42905029 -47.70040894 102.4407959 C-49.78281461 102.45957164 -51.86527803 102.47271399 -53.94775391 102.48046875 C-57.12376552 102.49999241 -60.29724426 102.56218857 -63.47265625 102.625 C-65.50519311 102.63805282 -67.53774828 102.64855661 -69.5703125 102.65625 C-70.51214386 102.6809436 -71.45397522 102.70563721 -72.42434692 102.7310791 C-77.285298 102.69834727 -80.19754515 102.32172872 -83.94189453 99.08251953 C-84.71679733 98.2904863 -84.71679733 98.2904863 -85.50735474 97.48245239 C-97.59171599 85.48061198 -119.5881142 82.71209757 -135.6315918 82.68115234 C-136.84264084 82.67110672 -138.05368988 82.6610611 -139.30143738 82.65071106 C-142.58581348 82.62531868 -145.87009684 82.60834315 -149.15454078 82.59528303 C-152.60053775 82.57953254 -156.04644996 82.55278112 -159.49238586 82.5272522 C-166.00144213 82.4806735 -172.51051472 82.44382902 -179.01965123 82.41057932 C-186.4369884 82.37220912 -193.85424 82.32283859 -201.27150476 82.27259517 C-216.51427444 82.16958676 -231.75709234 82.08022643 -247 82 C-247.12293372 77.37148586 -246.85004239 74.97305397 -244.1875 71.125 C-243.40439453 69.95324219 -243.40439453 69.95324219 -242.60546875 68.7578125 C-242.07566406 68.17773438 -241.54585937 67.59765625 -241 67 C-240.01 67 -239.02 67 -238 67 C-238.99 67.99 -238.99 67.99 -240 69 C-215.72967303 69.09360794 -191.45937329 69.16405975 -167.1889019 69.20724869 C-155.91867905 69.22783866 -144.64856864 69.25589091 -133.37841797 69.30175781 C-123.55075601 69.34173491 -113.72317552 69.3674587 -103.8954345 69.37635398 C-98.69587178 69.38155034 -93.49654204 69.39368892 -88.29705429 69.42292023 C-83.39360988 69.45026138 -78.49049232 69.45840752 -73.58697891 69.45243073 C-71.79645252 69.45352265 -70.00591411 69.46136435 -68.2154541 69.4768219 C-48.96273725 69.63475037 -31.69255628 65.39458651 -17.34765625 51.6328125 C-6.52399214 39.4944604 -0.49952964 24.92138159 0.5625 8.6875 C0.64628906 7.43324219 0.73007812 6.17898437 0.81640625 4.88671875 C0.87699219 3.93410156 0.93757812 2.98148438 1 2 C0.01 1.505 0.01 1.505 -1 1 C-0.67 0.67 -0.34 0.34 0 0 Z " fill="#7FB5F9" transform="translate(483,246)"/>
<path d="M0 0 C0 0.66 0 1.32 0 2 C-0.98097656 2.40089844 -1.96195312 2.80179688 -2.97265625 3.21484375 C-40.93721941 19.06385106 -71.1740331 48.65956328 -87.453125 86.5703125 C-96.79632252 109.45971489 -99.84487902 132.40572097 -100 157 C-99.34 157.33 -98.68 157.66 -98 158 C-98.56847656 158.17015625 -99.13695312 158.3403125 -99.72265625 158.515625 C-100.49480469 158.75796875 -101.26695312 159.0003125 -102.0625 159.25 C-102.81660156 159.48203125 -103.57070312 159.7140625 -104.34765625 159.953125 C-107.79380844 161.31331467 -110.81257458 163.11173329 -114 165 C-114.84304687 164.08476562 -115.68609375 163.16953125 -116.5546875 162.2265625 C-117.66143634 161.02602139 -118.76820838 159.82550167 -119.875 158.625 C-120.43058594 158.02171875 -120.98617187 157.4184375 -121.55859375 156.796875 C-122.09355469 156.21679688 -122.62851563 155.63671875 -123.1796875 155.0390625 C-123.91807861 154.23782959 -123.91807861 154.23782959 -124.67138672 153.42041016 C-125.75815762 152.25855182 -126.87505872 151.12494128 -128 150 C-131.73948424 118.2386663 -116.83591848 81.20597933 -97.5 56.625 C-95.69683716 54.39029229 -93.86003715 52.1875133 -92 50 C-90.80310547 48.59041016 -90.80310547 48.59041016 -89.58203125 47.15234375 C-70.48595368 25.3611227 -44.03083681 9.94064978 -16 3 C-14.88109375 2.70222656 -13.7621875 2.40445313 -12.609375 2.09765625 C-8.2385139 0.9521528 -4.54085606 0 0 0 Z " fill="#EDA509" transform="translate(235,127)"/>
<path d="M0 0 C1.02467626 0.97469922 2.03144707 1.96951214 3 3 C1.18628906 2.87431641 1.18628906 2.87431641 -0.6640625 2.74609375 C-27.43761886 1.01832449 -51.58260918 4.92514646 -73.125 22.125 C-80.45599391 28.80736688 -85.95388625 38.02818255 -90 47 C-94.25135903 46.78198159 -96.80507302 45.6026502 -100.1875 43.1875 C-105.11477168 39.69804992 -110.27702026 37.81851693 -116 36 C-115.40574219 35.31292969 -114.81148438 34.62585938 -114.19921875 33.91796875 C-111.87114544 30.82903312 -110.40802585 27.83053602 -108.8125 24.3125 C-105.55240211 17.48518706 -101.43856493 12.2954448 -96 7 C-95.40960938 6.37738281 -94.81921875 5.75476563 -94.2109375 5.11328125 C-69.56508357 -19.04399848 -27.63898726 -16.27592115 0 0 Z " fill="#D7E7FC" transform="translate(389,355)"/>
<path d="M0 0 C3.32878632 2.46040728 4.79301948 3.89610387 5.5625 8 C4.86187193 11.73668304 3.55918998 13.2087696 1 16 C-1.63793945 17.78930664 -1.63793945 17.78930664 -4.61328125 19.41015625 C-5.69673828 20.00763672 -6.78019531 20.60511719 -7.89648438 21.22070312 C-9.02376953 21.82849609 -10.15105469 22.43628906 -11.3125 23.0625 C-13.53779403 24.28249078 -15.76305532 25.50254126 -17.98828125 26.72265625 C-19.03419434 27.28863525 -20.08010742 27.85461426 -21.15771484 28.43774414 C-23.49429825 29.72204213 -25.77810467 31.0578738 -28.05859375 32.4375 C-31.86603946 34.46004752 -33.90763034 34.18049125 -38 33 C-40.88293954 31.27023628 -41.02200887 29.92076807 -41.9375 26.625 C-42.01536995 22.10854262 -41.04949036 21.22022388 -38 18 C-35.36206055 16.21069336 -35.36206055 16.21069336 -32.38671875 14.58984375 C-31.30326172 13.99236328 -30.21980469 13.39488281 -29.10351562 12.77929688 C-27.97623047 12.17150391 -26.84894531 11.56371094 -25.6875 10.9375 C-23.46220597 9.71750922 -21.23694468 8.49745874 -19.01171875 7.27734375 C-17.96661133 6.71055908 -16.92150391 6.14377441 -15.84472656 5.55981445 C-13.50538305 4.27711056 -11.19956352 2.95733346 -8.90234375 1.6015625 C-5.52383342 -0.26275679 -3.79150661 -0.74181651 0 0 Z " fill="#000000" transform="translate(490,171)"/>
<path d="M0 0 C7.19384138 1.46813089 11.20161245 8.05754826 15.546875 13.50390625 C17.32915062 15.73604197 19.15521923 17.92238657 21.015625 20.08984375 C21.75969604 20.95706055 21.75969604 20.95706055 22.51879883 21.84179688 C23.48710996 22.96667851 24.4581919 24.08918249 25.43237305 25.20898438 C31.13604223 31.85998652 31.13604223 31.85998652 30.9375 36.625 C29.90558189 40.16300495 29.10582421 41.54272554 26.0625 43.625 C22.625 44.1875 22.625 44.1875 19.0625 43.625 C17.01025452 42.0048062 15.70285384 40.61493745 14.0625 38.625 C12.64721649 37.08206347 11.2303884 35.5405431 9.8125 34 C5.05206257 28.68325102 0.53136192 23.18757955 -3.9375 17.625 C-4.67226562 16.76519531 -5.40703125 15.90539062 -6.1640625 15.01953125 C-7.9375 12.625 -7.9375 12.625 -8.5 9.125 C-7.9375 5.625 -7.9375 5.625 -5.8125 2.6875 C-2.9375 0.625 -2.9375 0.625 0 0 Z " fill="#000000" transform="translate(76.9375,92.375)"/>
<path d="M0 0 C3.85960411 1.01514057 7.02136382 3.02175071 10.37255859 5.13720703 C11.10361816 5.58394775 11.83467773 6.03068848 12.58789062 6.4909668 C14.07655423 7.40261518 15.56163244 8.32014553 17.04296875 9.24365234 C19.04154011 10.48552732 21.05244568 11.70290778 23.07177734 12.91064453 C33.13932171 18.96980207 33.13932171 18.96980207 35.18505859 21.57470703 C35.57238426 25.12519233 35.57810408 27.641224 34.18505859 30.94970703 C31.8206115 32.87082029 29.80283705 33.56511211 26.77978516 33.88720703 C20.65903164 33.15004439 15.25439337 29.04182178 10.06005859 25.88720703 C8.79945417 25.14377781 7.53774203 24.40222354 6.27490234 23.66259766 C2.88958395 21.66806966 -0.47605993 19.6464415 -3.81494141 17.57470703 C-4.90532715 16.90463623 -5.99571289 16.23456543 -7.11914062 15.54418945 C-9.81494141 13.57470703 -9.81494141 13.57470703 -11.37744141 10.13720703 C-11.81494141 6.57470703 -11.81494141 6.57470703 -10.62744141 3.76220703 C-7.30548198 -0.24705434 -5.06780378 -0.79470011 0 0 Z " fill="#000000" transform="translate(27.81494140625,171.42529296875)"/>
<path d="M0 0 C2.875 1.5 2.875 1.5 5 4 C5.86176167 7.50860111 6.04543619 8.67920268 5 12 C2.76088663 15.43081333 0.13301423 18.43006934 -2.61767578 21.45996094 C-4.57023247 23.63529255 -6.44384998 25.87381265 -8.32299805 28.11254883 C-9.68307123 29.73276945 -11.05108429 31.34587576 -12.421875 32.95703125 C-13.74901834 34.52346256 -15.07448472 36.09167145 -16.36914062 37.68505859 C-19.79890758 41.89945379 -19.79890758 41.89945379 -22 43 C-25.79877599 43.35173852 -28.14360153 43.52701444 -31.4375 41.5 C-33.5944656 38.04885504 -33.72223047 34.91784061 -33 31 C-31.54899678 28.37245913 -29.63688838 26.34126548 -27.5625 24.1875 C-26.45851243 22.97497985 -25.35565973 21.76142551 -24.25390625 20.546875 C-23.7036377 19.95197266 -23.15336914 19.35707031 -22.58642578 18.74414062 C-20.28918108 16.21851487 -18.14815103 13.59130928 -16 10.9375 C-15.319375 10.10089844 -14.63875 9.26429687 -13.9375 8.40234375 C-12.56513198 6.70071808 -11.21285966 4.98279474 -9.875 3.25390625 C-6.86299105 -0.36677951 -4.60410999 -0.45138333 0 0 Z " fill="#000000" transform="translate(437,93)"/>
<path d="M0 0 C1.9375 1.625 1.9375 1.625 3 4 C3.37251547 9.342397 2.41781363 13.57498318 0.515625 18.5078125 C0.25875916 19.19632294 0.00189331 19.88483337 -0.26275635 20.59420776 C-0.80533413 22.04000879 -1.35358478 23.48369246 -1.90722656 24.92529297 C-2.74822578 27.12036914 -3.56665335 29.32292832 -4.3828125 31.52734375 C-4.91534085 32.93800121 -5.44915236 34.34817508 -5.984375 35.7578125 C-6.22621521 36.41000763 -6.46805542 37.06220276 -6.71722412 37.73416138 C-8.27056473 41.73290838 -10.07849162 44.85197527 -13 48 C-15.75263191 48.86557371 -18.19531045 48.60921535 -21 48 C-23.5 46.4375 -23.5 46.4375 -25 44 C-25.4292247 38.5885986 -24.36371768 34.24757577 -22.48046875 29.23828125 C-22.09161247 28.16866402 -22.09161247 28.16866402 -21.69490051 27.07743835 C-21.1479221 25.5804939 -20.59547862 24.08553608 -20.0378418 22.5925293 C-19.18778819 20.31327273 -18.35733064 18.02757031 -17.52929688 15.74023438 C-16.99332951 14.28083009 -16.45625766 12.82183085 -15.91796875 11.36328125 C-15.67096725 10.68405106 -15.42396576 10.00482086 -15.16947937 9.30500793 C-13.85269703 5.80604705 -12.57764597 2.74405361 -10 0 C-6.20519658 -1.26493447 -3.87641726 -0.89988258 0 0 Z " fill="#000000" transform="translate(358,38)"/>
<path d="M0 0 C3.46513198 2.50877548 4.51362737 6.35715707 5.91796875 10.23046875 C6.18007645 10.93972 6.44218414 11.64897125 6.7122345 12.37971497 C7.26354989 13.8802314 7.8104646 15.38237105 8.35327148 16.88598633 C9.18030867 19.16766018 10.02960235 21.44016011 10.88085938 23.71289062 C11.41544458 25.17657929 11.94869078 26.64075784 12.48046875 28.10546875 C12.73354294 28.77660202 12.98661713 29.44773529 13.24736023 30.13920593 C14.94772298 34.93571501 15.34931022 38.90699584 15 44 C13.5 46.5 13.5 46.5 11 48 C8.19316882 48.60392884 5.75417262 48.86605819 3 48 C-0.57223994 44.20097264 -2.35139052 40.13462519 -4.05078125 35.28515625 C-4.31384567 34.5517955 -4.5769101 33.81843475 -4.84794617 33.06285095 C-5.39819063 31.51901974 -5.94334045 29.9733642 -6.48364258 28.42602539 C-7.31087957 26.06712073 -8.16313501 23.71830658 -9.01757812 21.36914062 C-9.55101957 19.86252369 -10.08297157 18.35537838 -10.61328125 16.84765625 C-10.86837967 16.15060074 -11.12347809 15.45354523 -11.38630676 14.73536682 C-12.85579759 10.44402931 -13.28569324 7.37649498 -12 3 C-8.18972037 -1.37061487 -5.47372374 -1.52047882 0 0 Z " fill="#000000" transform="translate(163,38)"/>
<path d="M0 0 C0.66 -0.02191406 1.32 -0.04382812 2 -0.06640625 C5.24006627 0.95244271 6.21036136 2.71486775 8 5.5625 C8.56060695 8.60062725 8.51387744 11.5783063 8.4609375 14.66015625 C8.45956284 15.9670768 8.45956284 15.9670768 8.4581604 17.30039978 C8.45213411 19.13692697 8.43641732 20.97344478 8.41162109 22.80981445 C8.37507778 25.61902101 8.37060221 28.42690848 8.37109375 31.23632812 C8.36126313 33.02344888 8.34960636 34.81056073 8.3359375 36.59765625 C8.33371185 37.43627701 8.33148621 38.27489777 8.32919312 39.13893127 C8.31643341 39.92332077 8.30367371 40.70771027 8.29052734 41.51586914 C8.28290375 42.20250137 8.27528015 42.88913361 8.26742554 43.59657288 C7.84144403 46.72809358 6.81315604 48.9300453 4.3125 50.875 C0.92838082 51.88108949 -1.59666774 51.36692399 -5 50.5625 C-7.04394375 49.00587317 -7.88657335 48.13779415 -8.38768005 45.59620667 C-8.39308304 44.85104294 -8.39848602 44.10587921 -8.40405273 43.33813477 C-8.41673691 42.49037979 -8.42942108 41.64262482 -8.44248962 40.7691803 C-8.43808617 39.40036964 -8.43808617 39.40036964 -8.43359375 38.00390625 C-8.4388356 37.06320786 -8.44407745 36.12250946 -8.44947815 35.15330505 C-8.45590206 33.16365547 -8.45455659 31.17396792 -8.44604492 29.18432617 C-8.43754126 26.13977374 -8.46628086 23.09710105 -8.49804688 20.05273438 C-8.49965912 18.11979223 -8.49908091 16.18684676 -8.49609375 14.25390625 C-8.50732773 13.34339005 -8.51856171 12.43287384 -8.53013611 11.49476624 C-8.46055748 5.18357712 -8.46055748 5.18357712 -6.09399414 1.9921875 C-3.84537355 0.45692783 -2.69955987 -0.00527258 0 0 Z " fill="#000000" transform="translate(256,12.4375)"/>
<path d="M0 0 C0 0.66 0 1.32 0 2 C-1.98 2.66 -3.96 3.32 -6 4 C-6 3.34 -6 2.68 -6 2 C-6.99 1.67 -7.98 1.34 -9 1 C-5.846632 0.29925156 -3.27275026 0 0 0 Z " fill="#C68B08" transform="translate(235,127)"/>
</svg>
